<svg width="1200" height="630" viewBox="0 0 1200 630" fill="none" xmlns="http://www.w3.org/2000/svg">
  <rect width="1200" height="630" fill="#06070B"/>
  <rect x="34" y="34" width="1132" height="562" rx="32" fill="url(#bg)" stroke="rgba(255,255,255,0.12)"/>
  <circle cx="874" cy="188" r="142" fill="url(#glow1)" fill-opacity="0.85"/>
  <circle cx="294" cy="478" r="164" fill="url(#glow2)" fill-opacity="0.75"/>
  <circle cx="916" cy="194" r="224" stroke="rgba(122,246,255,0.28)"/>
  <circle cx="916" cy="194" r="172" stroke="rgba(255,255,255,0.16)"/>
  <g fill="#D8FBFF" fill-opacity="0.9" font-family="'Space Grotesk', 'Noto Sans JP', sans-serif" font-size="15" letter-spacing="4.4">
    <text x="144" y="126">HTML</text>
    <text x="274" y="188">CSS</text>
    <text x="994" y="114">TS</text>
    <text x="964" y="408">REACT</text>
    <text x="146" y="538">NODE</text>
    <text x="844" y="534">SEO</text>
    <text x="604" y="112">ROUTE</text>
  </g>
  <g fill="#F8FAFC" font-family="'Space Grotesk', 'Noto Sans JP', sans-serif">
    <text x="118" y="244" font-size="24" letter-spacing="8">STRUCTURE</text>
    <text x="118" y="336" font-size="88" font-weight="700">構造から設計する</text>
    <text x="118" y="430" font-size="88" font-weight="700">Web制作会社</text>
    <text x="120" y="504" font-size="28" fill="rgba(248,250,252,0.72)">Multilingual. Multi-currency. SEO-ready.</text>
  </g>
  <g opacity="0.9">
    <circle cx="170" cy="154" r="4" fill="#7AF6FF"/>
    <circle cx="334" cy="122" r="3" fill="#FFFFFF"/>
    <circle cx="1012" cy="164" r="5" fill="#A855F7"/>
    <circle cx="1086" cy="228" r="3" fill="#FFFFFF"/>
    <circle cx="892" cy="82" r="2.5" fill="#7AF6FF"/>
    <circle cx="760" cy="512" r="3" fill="#FFFFFF"/>
  </g>
  <defs>
    <linearGradient id="bg" x1="98" y1="64" x2="1094" y2="566" gradientUnits="userSpaceOnUse">
      <stop stop-color="#0A1220"/>
      <stop offset="0.52" stop-color="#0A0E18"/>
      <stop offset="1" stop-color="#111827"/>
    </linearGradient>
    <radialGradient id="glow1" cx="0" cy="0" r="1" gradientUnits="userSpaceOnUse" gradientTransform="translate(874 188) rotate(90) scale(142)">
      <stop stop-color="#7AF6FF"/>
      <stop offset="1" stop-color="#7AF6FF" stop-opacity="0"/>
    </radialGradient>
    <radialGradient id="glow2" cx="0" cy="0" r="1" gradientUnits="userSpaceOnUse" gradientTransform="translate(294 478) rotate(90) scale(164)">
      <stop stop-color="#D946EF"/>
      <stop offset="1" stop-color="#D946EF" stop-opacity="0"/>
    </radialGradient>
  </defs>
</svg>